<?xml version="1.0" encoding="utf-8"?>
<!-- Generator: Adobe Illustrator 16.2.0, SVG Export Plug-In . SVG Version: 6.00 Build 0)  -->
<svg version="1.2" baseProfile="tiny" id="Layer_1" xmlns="http://www.w3.org/2000/svg" xmlns:xlink="http://www.w3.org/1999/xlink"
	 x="0px" y="0px" width="92px" height="92px" viewBox="0 0 92 92" xml:space="preserve" preserveAspectRatio="xMinYMin">
<g>
	<path fill="#FFFFFF" d="M45,0C20.148,0,0,20.371,0,45.5C0,70.629,20.148,91,45,91s45-20.371,45-45.5C90,20.371,69.852,0,45,0z
		 M52.347,73.357c0,1.022-0.825,1.857-1.837,1.857H39.49c-1.012,0-1.836-0.835-1.836-1.857V62.215c0-1.023,0.825-1.857,1.836-1.857
		h11.02c1.012,0,1.837,0.834,1.837,1.857V73.357z M52.347,32.5c0,1.023-0.161,2.677-0.358,3.678l-3.308,17.716
		c-0.194,1.001-1.184,2.749-2.195,2.749h-2.885c-1.011,0-2.001-1.748-2.202-2.749l-3.379-17.251
		c-0.201-1.001-0.366-3.119-0.366-4.142V17.643c0-1.023,0.825-1.857,1.836-1.857h11.02c1.012,0,1.837,0.834,1.837,1.857V32.5z"/>
</g>
</svg>
