<?xml version="1.0" encoding="utf-8"?>
<svg version="1.2" baseProfile="tiny" id="Layer_1" xmlns="http://www.w3.org/2000/svg" xmlns:xlink="http://www.w3.org/1999/xlink"
   x="0px" y="0px" width="79.958px" height="63.906px" viewBox="0 0 79.958 63.906" xml:space="preserve" preserveAspectRatio="xMinYMin">
<g>
  <path fill="#222222" d="M77.599,12.471c0.642,0.63,0.645,1.661,0.009,2.297L30.331,61.933c-0.635,0.633-1.675,0.633-2.31,0
    L17.422,51.355c-0.638-0.635-1.678-1.671-2.309-2.304L2.354,36.319c-0.638-0.63-0.638-1.667,0-2.304l10.603-10.578
    c0.635-0.633,1.675-0.633,2.309,0l12.759,12.729c0.638,0.633,1.678,0.633,2.309,0l34.274-34.19
    c0.635-0.633,1.677-0.637,2.319-0.006L77.599,12.471z"/>
</g>
</svg>
