<?xml version="1.0" encoding="utf-8"?>
<!-- Generator: Adobe Illustrator 16.2.0, SVG Export Plug-In . SVG Version: 6.00 Build 0)  -->
<svg version="1.2" baseProfile="tiny" id="Layer_1" xmlns="http://www.w3.org/2000/svg" xmlns:xlink="http://www.w3.org/1999/xlink"
	 x="0px" y="0px" width="112.544px" height="130.637px" viewBox="0 0 112.544 130.637" xml:space="preserve">
<g>
	<path fill="#FFFFFF" d="M112.544,105.03l-4.352-9.586l-12.639,4.577L79.206,65.154H37.37l-1.148-11.55h25.119V41.622H35.042
		l-1.066-10.776c7.376-1.205,13.017-7.593,13.017-15.311C46.993,6.955,40.041,0,31.456,0c-8.579,0-15.532,6.955-15.532,15.535
		c0,4.458,1.887,8.468,4.903,11.3l2.232,22.018C8.821,56.676,0,71.355,0,87.377c0,23.854,19.4,43.26,43.252,43.26
		c17.833,0,33.58-11.238,40.268-26.8l5.057,10.78L112.544,105.03L112.544,105.03z M43.252,119.961
		c-17.961,0-32.577-14.616-32.577-32.584c0-10.565,5.103-20.37,13.586-26.651l1.559,15.325h44.674l5.718,12.211
		C75.72,105.527,60.845,119.961,43.252,119.961L43.252,119.961z"/>
</g>
</svg>
