<?xml version="1.0" encoding="utf-8"?>
<!-- Generator: Adobe Illustrator 16.2.0, SVG Export Plug-In . SVG Version: 6.00 Build 0)  -->
<svg version="1.2" baseProfile="tiny" id="Layer_1" xmlns="http://www.w3.org/2000/svg" xmlns:xlink="http://www.w3.org/1999/xlink"
	 x="0px" y="0px" width="155.521px" height="200px" viewBox="0 0 155.521 200" xml:space="preserve" preserveAspectRatio="xMinYMin">
<g>
	<path fill="#FFFFFF" d="M133.656,161.595c-0.458-0.722-1.072-1.309-1.847-1.764c-0.773-0.451-1.727-0.681-2.864-0.681
		c-1.135,0-2.081,0.229-2.838,0.681c-0.756,0.455-1.364,1.042-1.822,1.764c-0.456,0.722-0.78,1.552-0.971,2.491
		c-0.188,0.94-0.284,1.896-0.284,2.866c0,0.973,0.097,1.921,0.284,2.846c0.19,0.925,0.515,1.756,0.971,2.49
		c0.458,0.736,1.066,1.326,1.822,1.762c0.757,0.44,1.703,0.658,2.838,0.658c1.138,0,2.091-0.218,2.864-0.658
		c0.774-0.436,1.389-1.025,1.847-1.762c0.457-0.734,0.78-1.565,0.97-2.49c0.188-0.925,0.283-1.873,0.283-2.846
		c0-0.97-0.095-1.926-0.283-2.866C134.437,163.146,134.113,162.316,133.656,161.595z"/>
	<path fill="#FFFFFF" d="M66.815,159.15c-1.072,0-1.963,0.182-2.673,0.539c-0.71,0.362-1.278,0.81-1.705,1.341
		c-0.425,0.534-0.725,1.099-0.898,1.691c-0.174,0.597-0.276,1.129-0.308,1.6h10.932c-0.316-1.692-0.875-2.976-1.68-3.854
		C69.678,159.588,68.455,159.15,66.815,159.15z"/>
	<path fill="#FFFFFF" d="M147.681,0H6.712C2.993,0,0,2.993,0,6.712v184.01c0,3.555,2.993,6.713,6.712,6.713h140.968
		c3.556,0,6.319-3.158,6.319-6.713V6.712C154,2.993,151.236,0,147.681,0z M50.396,179.079h-6.72v-13.771
		c0-0.815-0.032-1.582-0.095-2.304c-0.063-0.721-0.236-1.347-0.521-1.879c-0.284-0.533-0.702-0.957-1.253-1.27
		c-0.552-0.313-1.302-0.47-2.249-0.47c-0.946,0-1.711,0.179-2.295,0.539c-0.583,0.36-1.041,0.831-1.373,1.411
		c-0.331,0.58-0.552,1.236-0.662,1.975c-0.111,0.734-0.166,1.48-0.166,2.231v13.536h-6.72v-13.63c0-0.721-0.016-1.434-0.047-2.138
		c-0.032-0.705-0.166-1.355-0.402-1.951c-0.237-0.595-0.631-1.074-1.183-1.435s-1.365-0.539-2.438-0.539
		c-0.316,0-0.733,0.068-1.254,0.209c-0.521,0.143-1.025,0.41-1.515,0.8c-0.489,0.392-0.907,0.956-1.253,1.692
		c-0.348,0.736-0.521,1.7-0.521,2.891v14.101h-6.719v-24.3h6.342v3.29h0.095c0.882-1.252,1.947-2.225,3.194-2.914
		c1.246-0.688,2.673-1.033,4.283-1.033c1.544,0,2.958,0.297,4.234,0.892c1.278,0.597,2.248,1.645,2.911,3.15
		c0.726-1.065,1.711-2.005,2.958-2.82c1.246-0.812,2.721-1.222,4.425-1.222c1.293,0,2.49,0.155,3.595,0.47
		c1.104,0.313,2.051,0.814,2.839,1.504c0.789,0.688,1.404,1.591,1.845,2.701c0.442,1.113,0.664,2.454,0.664,4.02V179.079z
		 M78.882,168.551H61.231c0.095,2.163,0.646,3.729,1.656,4.7c1.01,0.974,2.461,1.457,4.354,1.457c1.356,0,2.523-0.336,3.502-1.009
		c0.977-0.675,1.578-1.387,1.797-2.14h5.917c-0.947,2.913-2.399,4.998-4.354,6.252c-1.957,1.252-4.323,1.881-7.099,1.881
		c-1.924,0-3.66-0.307-5.205-0.918c-1.546-0.611-2.855-1.48-3.927-2.609c-1.073-1.127-1.901-2.475-2.485-4.042
		c-0.584-1.567-0.875-3.291-0.875-5.171c0-1.815,0.299-3.509,0.898-5.076c0.6-1.565,1.451-2.92,2.556-4.065
		c1.104-1.143,2.42-2.045,3.951-2.702c1.529-0.657,3.226-0.986,5.086-0.986c2.083,0,3.896,0.397,5.442,1.198
		c1.545,0.799,2.815,1.872,3.809,3.221c0.994,1.346,1.712,2.884,2.153,4.605C78.85,164.869,79.008,166.672,78.882,168.551z
		 M96.295,159.244h-4.921v12.032c0,1.129,0.19,1.882,0.569,2.259c0.378,0.377,1.134,0.562,2.271,0.562
		c0.378,0,0.74-0.015,1.088-0.047c0.346-0.03,0.677-0.078,0.993-0.138v5.167c-0.568,0.096-1.198,0.159-1.893,0.19
		c-0.693,0.029-1.372,0.046-2.034,0.046c-1.042,0-2.027-0.07-2.958-0.212c-0.93-0.141-1.751-0.414-2.46-0.824
		c-0.71-0.406-1.271-0.985-1.68-1.737c-0.41-0.75-0.615-1.738-0.615-2.961v-14.337h-4.07v-4.465h4.07v-7.286h6.719v7.286h4.921
		V159.244z M115.271,160.562c-0.315-0.062-0.694-0.117-1.135-0.166c-0.443-0.046-0.87-0.069-1.277-0.069
		c-1.232,0-2.272,0.203-3.124,0.609c-0.852,0.41-1.538,0.964-2.059,1.671c-0.521,0.705-0.892,1.526-1.111,2.467
		c-0.222,0.939-0.332,1.958-0.332,3.054v10.952h-6.72v-24.3h6.389v4.512h0.095c0.315-0.75,0.742-1.449,1.276-2.091
		c0.537-0.644,1.153-1.189,1.848-1.646c0.693-0.455,1.435-0.807,2.223-1.057c0.789-0.25,1.609-0.376,2.462-0.376
		c0.441,0,0.93,0.079,1.466,0.233V160.562z M90.03,140.97H64.364L38.697,51.333v89.637H13.03V11.846h38.302l26.062,86.083
		l25.667-86.083h38.302V140.97h-25.666V51.333L90.03,140.97z M140.729,172.218c-0.6,1.566-1.451,2.906-2.556,4.018
		c-1.104,1.114-2.435,1.967-3.998,2.562c-1.562,0.596-3.305,0.896-5.23,0.896c-1.923,0-3.658-0.3-5.203-0.896
		c-1.547-0.595-2.872-1.447-3.977-2.562c-1.104-1.111-1.956-2.451-2.554-4.018c-0.599-1.566-0.9-3.322-0.9-5.266
		c0-1.941,0.302-3.704,0.9-5.286c0.598-1.582,1.449-2.931,2.554-4.043c1.104-1.111,2.43-1.976,3.977-2.585
		c1.545-0.609,3.28-0.916,5.203-0.916c1.926,0,3.669,0.307,5.23,0.916c1.563,0.609,2.894,1.474,3.998,2.585
		c1.104,1.112,1.956,2.461,2.556,4.043c0.599,1.582,0.9,3.345,0.9,5.286C141.63,168.896,141.328,170.651,140.729,172.218z"/>
</g>
</svg>
