<?xml version="1.0" encoding="utf-8"?>
<!-- Generator: Adobe Illustrator 16.2.0, SVG Export Plug-In . SVG Version: 6.00 Build 0)  -->
<svg version="1.2" baseProfile="tiny" id="Layer_1" xmlns="http://www.w3.org/2000/svg" xmlns:xlink="http://www.w3.org/1999/xlink"
	 x="0px" y="0px" width="130.271px" height="156.328px" viewBox="0 0 130.271 156.328" xml:space="preserve">
<g>
	<path fill="#FFFFFF" d="M130.271,26.443c0,0-2.426-26.443-19.355-26.443H65.901h-1.54h-45.02C2.415,0,0,26.443,0,26.443v111.072
		h9.664c0,0-0.635,18.812,15.116,18.812c15.76,0,15.116-18.812,15.116-18.812h24.465h1.54h24.465c0,0-0.638,18.812,15.114,18.812
		c15.757,0,15.116-18.812,15.116-18.812h9.675V26.443z M36.097,8.342h57.445c5.071,0,5.828,11.166,0,11.166H36.097
		C32.395,19.508,31.953,8.342,36.097,8.342z M24.303,115.695c-7.815,0-14.153-6.164-14.153-13.765
		c0-7.595,6.338-13.753,14.153-13.753c7.83,0,14.157,6.158,14.157,13.753C38.46,109.531,32.133,115.695,24.303,115.695z
		 M16.242,73.969v-47.28h95.129v47.28H16.242z M106.797,115.706c-7.821,0-14.157-6.164-14.157-13.762
		c0-7.599,6.336-13.759,14.157-13.759c7.818,0,14.157,6.16,14.157,13.759C120.954,109.542,114.615,115.706,106.797,115.706z"/>
</g>
</svg>
